<?xml version="1.0" encoding="UTF-8" standalone="no"?>
<!DOCTYPE svg PUBLIC "-//W3C//DTD SVG 1.1//EN"
 "http://www.w3.org/Graphics/SVG/1.1/DTD/svg11.dtd">
<!-- Generated by graphviz version 2.46.1 (20210213.1702)
 -->
<!-- Pages: 1 -->
<svg width="87pt" height="302pt"
 viewBox="0.00 0.00 87.00 302.00" xmlns="http://www.w3.org/2000/svg" xmlns:xlink="http://www.w3.org/1999/xlink">
<g id="graph0" class="graph" transform="scale(1 1) rotate(0) translate(4 298)">
<polygon fill="white" stroke="transparent" points="-4,4 -4,-298 83,-298 83,4 -4,4"/>
<!-- fake -->
<g id="node1" class="node">
<title>fake</title>
</g>
<!-- q0 -->
<g id="node3" class="node">
<title>q0</title>
<ellipse fill="none" stroke="black" cx="27" cy="-203" rx="27" ry="18"/>
<text text-anchor="middle" x="27" y="-199.3" font-family="Times,serif" font-size="14.00">q0</text>
</g>
<!-- fake&#45;&gt;q0 -->
<g id="edge1" class="edge">
<title>fake&#45;&gt;q0</title>
<path fill="none" stroke="black" stroke-width="2" d="M27,-257.81C27,-249.79 27,-240.04 27,-231.07"/>
<polygon fill="black" stroke="black" stroke-width="2" points="30.5,-231.03 27,-221.03 23.5,-231.03 30.5,-231.03"/>
</g>
<!-- q2 -->
<g id="node2" class="node">
<title>q2</title>
<ellipse fill="none" stroke="black" cx="27" cy="-23.5" rx="19.5" ry="19.5"/>
<ellipse fill="none" stroke="black" cx="27" cy="-23.5" rx="23.5" ry="23.5"/>
<text text-anchor="middle" x="27" y="-19.8" font-family="Times,serif" font-size="14.00">q2</text>
</g>
<!-- q0&#45;&gt;q0 -->
<g id="edge2" class="edge">
<title>q0&#45;&gt;q0</title>
<path fill="none" stroke="black" d="M52.44,-209.69C63.03,-210.15 72,-207.92 72,-203 72,-199.77 68.14,-197.7 62.49,-196.78"/>
<polygon fill="black" stroke="black" points="62.6,-193.29 52.44,-196.31 62.27,-200.28 62.6,-193.29"/>
<text text-anchor="middle" x="75.5" y="-199.3" font-family="Times,serif" font-size="14.00">0</text>
</g>
<!-- q1 -->
<g id="node4" class="node">
<title>q1</title>
<ellipse fill="none" stroke="black" cx="27" cy="-116" rx="27" ry="18"/>
<text text-anchor="middle" x="27" y="-112.3" font-family="Times,serif" font-size="14.00">q1</text>
</g>
<!-- q0&#45;&gt;q1 -->
<g id="edge3" class="edge">
<title>q0&#45;&gt;q1</title>
<path fill="none" stroke="black" d="M27,-184.8C27,-173.16 27,-157.54 27,-144.23"/>
<polygon fill="black" stroke="black" points="30.5,-144.17 27,-134.17 23.5,-144.17 30.5,-144.17"/>
<text text-anchor="middle" x="30.5" y="-155.8" font-family="Times,serif" font-size="14.00">1</text>
</g>
<!-- q1&#45;&gt;q2 -->
<g id="edge5" class="edge">
<title>q1&#45;&gt;q2</title>
<path fill="none" stroke="black" d="M27,-97.97C27,-86.55 27,-71.13 27,-57.36"/>
<polygon fill="black" stroke="black" points="30.5,-57.25 27,-47.25 23.5,-57.25 30.5,-57.25"/>
<text text-anchor="middle" x="30.5" y="-68.8" font-family="Times,serif" font-size="14.00">1</text>
</g>
<!-- q1&#45;&gt;q1 -->
<g id="edge4" class="edge">
<title>q1&#45;&gt;q1</title>
<path fill="none" stroke="black" d="M51.53,-123.75C62.51,-124.49 72,-121.9 72,-116 72,-112.03 67.72,-109.56 61.57,-108.59"/>
<polygon fill="black" stroke="black" points="61.65,-105.09 51.53,-108.24 61.41,-112.09 61.65,-105.09"/>
<text text-anchor="middle" x="75.5" y="-112.3" font-family="Times,serif" font-size="14.00">0</text>
</g>
</g>
</svg>
