<?xml version="1.0" encoding="UTF-8" standalone="no"?>
<!DOCTYPE svg PUBLIC "-//W3C//DTD SVG 1.1//EN"
 "http://www.w3.org/Graphics/SVG/1.1/DTD/svg11.dtd">
<!-- Generated by graphviz version 2.46.1 (20210213.1702)
 -->
<!-- Pages: 1 -->
<svg width="131pt" height="324pt"
 viewBox="0.00 0.00 130.55 324.09" xmlns="http://www.w3.org/2000/svg" xmlns:xlink="http://www.w3.org/1999/xlink">
<g id="graph0" class="graph" transform="scale(1 1) rotate(0) translate(4 320.09)">
<polygon fill="white" stroke="transparent" points="-4,4 -4,-320.09 126.55,-320.09 126.55,4 -4,4"/>
<!-- fake -->
<g id="node1" class="node">
<title>fake</title>
</g>
<!-- q0 -->
<g id="node3" class="node">
<title>q0</title>
<ellipse fill="none" stroke="black" cx="27" cy="-225.09" rx="27" ry="18"/>
<text text-anchor="middle" x="27" y="-221.39" font-family="Times,serif" font-size="14.00">q0</text>
</g>
<!-- fake&#45;&gt;q0 -->
<g id="edge1" class="edge">
<title>fake&#45;&gt;q0</title>
<path fill="none" stroke="black" stroke-width="2" d="M27,-279.91C27,-271.88 27,-262.14 27,-253.16"/>
<polygon fill="black" stroke="black" stroke-width="2" points="30.5,-253.12 27,-243.12 23.5,-253.12 30.5,-253.12"/>
</g>
<!-- q0,q2 -->
<g id="node2" class="node">
<title>q0,q2</title>
<ellipse fill="none" stroke="black" cx="44" cy="-34.55" rx="30.59" ry="30.59"/>
<ellipse fill="none" stroke="black" cx="44" cy="-34.55" rx="34.59" ry="34.59"/>
<text text-anchor="middle" x="44" y="-30.85" font-family="Times,serif" font-size="14.00">q0,q2</text>
</g>
<!-- q0,q2&#45;&gt;q0 -->
<g id="edge7" class="edge">
<title>q0,q2&#45;&gt;q0</title>
<path fill="none" stroke="black" d="M32.76,-67.22C27.78,-82.91 22.48,-102.26 20,-120.09 17.79,-135.94 19.18,-140.12 20,-156.09 20.69,-169.57 22.15,-184.49 23.56,-196.91"/>
<polygon fill="black" stroke="black" points="20.11,-197.57 24.76,-207.09 27.06,-196.74 20.11,-197.57"/>
<text text-anchor="middle" x="23.5" y="-134.39" font-family="Times,serif" font-size="14.00">1</text>
</g>
<!-- q0,q1 -->
<g id="node4" class="node">
<title>q0,q1</title>
<ellipse fill="none" stroke="black" cx="67" cy="-138.09" rx="30.59" ry="18"/>
<text text-anchor="middle" x="67" y="-134.39" font-family="Times,serif" font-size="14.00">q0,q1</text>
</g>
<!-- q0,q2&#45;&gt;q0,q1 -->
<g id="edge6" class="edge">
<title>q0,q2&#45;&gt;q0,q1</title>
<path fill="none" stroke="black" d="M51.46,-68.49C54.49,-81.87 57.95,-97.14 60.83,-109.87"/>
<polygon fill="black" stroke="black" points="57.48,-110.89 63.1,-119.87 64.3,-109.34 57.48,-110.89"/>
<text text-anchor="middle" x="61.5" y="-90.89" font-family="Times,serif" font-size="14.00">0</text>
</g>
<!-- q0&#45;&gt;q0 -->
<g id="edge3" class="edge">
<title>q0&#45;&gt;q0</title>
<path fill="none" stroke="black" d="M52.44,-231.79C63.03,-232.25 72,-230.02 72,-225.09 72,-221.86 68.14,-219.79 62.49,-218.88"/>
<polygon fill="black" stroke="black" points="62.6,-215.38 52.44,-218.4 62.27,-222.38 62.6,-215.38"/>
<text text-anchor="middle" x="75.5" y="-221.39" font-family="Times,serif" font-size="14.00">1</text>
</g>
<!-- q0&#45;&gt;q0,q1 -->
<g id="edge2" class="edge">
<title>q0&#45;&gt;q0,q1</title>
<path fill="none" stroke="black" d="M34.71,-207.71C40.43,-195.55 48.34,-178.75 54.89,-164.82"/>
<polygon fill="black" stroke="black" points="58.08,-166.26 59.17,-155.72 51.75,-163.28 58.08,-166.26"/>
<text text-anchor="middle" x="52.5" y="-177.89" font-family="Times,serif" font-size="14.00">0</text>
</g>
<!-- q0,q1&#45;&gt;q0,q2 -->
<g id="edge5" class="edge">
<title>q0,q1&#45;&gt;q0,q2</title>
<path fill="none" stroke="black" d="M55.73,-121.08C52.29,-115.36 48.91,-108.68 47,-102.09 44.9,-94.83 43.67,-86.94 43.01,-79.22"/>
<polygon fill="black" stroke="black" points="46.51,-79.01 42.45,-69.22 39.52,-79.4 46.51,-79.01"/>
<text text-anchor="middle" x="50.5" y="-90.89" font-family="Times,serif" font-size="14.00">1</text>
</g>
<!-- q0,q1&#45;&gt;q0,q1 -->
<g id="edge4" class="edge">
<title>q0,q1&#45;&gt;q0,q1</title>
<path fill="none" stroke="black" d="M94.94,-145.92C106.14,-146.36 115.55,-143.75 115.55,-138.09 115.55,-134.29 111.3,-131.87 105.12,-130.82"/>
<polygon fill="black" stroke="black" points="105.11,-127.31 94.94,-130.27 104.73,-134.3 105.11,-127.31"/>
<text text-anchor="middle" x="119.05" y="-134.39" font-family="Times,serif" font-size="14.00">0</text>
</g>
</g>
</svg>
