<?xml version="1.0" encoding="UTF-8" standalone="no"?>
<!DOCTYPE svg PUBLIC "-//W3C//DTD SVG 1.1//EN"
 "http://www.w3.org/Graphics/SVG/1.1/DTD/svg11.dtd">
<!-- Generated by graphviz version 2.46.1 (20210213.1702)
 -->
<!-- Pages: 1 -->
<svg width="137pt" height="324pt"
 viewBox="0.00 0.00 136.55 324.09" xmlns="http://www.w3.org/2000/svg" xmlns:xlink="http://www.w3.org/1999/xlink">
<g id="graph0" class="graph" transform="scale(1 1) rotate(0) translate(4 320.09)">
<polygon fill="white" stroke="transparent" points="-4,4 -4,-320.09 132.55,-320.09 132.55,4 -4,4"/>
<!-- fake -->
<g id="node1" class="node">
<title>fake</title>
</g>
<!-- q0 -->
<g id="node2" class="node">
<title>q0</title>
<ellipse fill="none" stroke="black" cx="76.55" cy="-225.09" rx="27" ry="18"/>
<text text-anchor="middle" x="76.55" y="-221.39" font-family="Times,serif" font-size="14.00">q0</text>
</g>
<!-- fake&#45;&gt;q0 -->
<g id="edge1" class="edge">
<title>fake&#45;&gt;q0</title>
<path fill="none" stroke="black" stroke-width="2" d="M76.55,-279.91C76.55,-271.88 76.55,-262.14 76.55,-253.16"/>
<polygon fill="black" stroke="black" stroke-width="2" points="80.05,-253.12 76.55,-243.12 73.05,-253.12 80.05,-253.12"/>
</g>
<!-- q0&#45;&gt;q0 -->
<g id="edge3" class="edge">
<title>q0&#45;&gt;q0</title>
<path fill="none" stroke="black" d="M101.99,-231.79C112.58,-232.25 121.55,-230.02 121.55,-225.09 121.55,-221.86 117.68,-219.79 112.04,-218.88"/>
<polygon fill="black" stroke="black" points="112.15,-215.38 101.99,-218.4 111.81,-222.38 112.15,-215.38"/>
<text text-anchor="middle" x="125.05" y="-221.39" font-family="Times,serif" font-size="14.00">1</text>
</g>
<!-- q0,q1 -->
<g id="node3" class="node">
<title>q0,q1</title>
<ellipse fill="none" stroke="black" cx="30.55" cy="-138.09" rx="30.59" ry="18"/>
<text text-anchor="middle" x="30.55" y="-134.39" font-family="Times,serif" font-size="14.00">q0,q1</text>
</g>
<!-- q0&#45;&gt;q0,q1 -->
<g id="edge2" class="edge">
<title>q0&#45;&gt;q0,q1</title>
<path fill="none" stroke="black" d="M67.68,-207.71C61.06,-195.48 51.89,-178.54 44.32,-164.55"/>
<polygon fill="black" stroke="black" points="47.23,-162.56 39.39,-155.43 41.07,-165.89 47.23,-162.56"/>
<text text-anchor="middle" x="60.05" y="-177.89" font-family="Times,serif" font-size="14.00">0</text>
</g>
<!-- q0,q1&#45;&gt;q0,q1 -->
<g id="edge4" class="edge">
<title>q0,q1&#45;&gt;q0,q1</title>
<path fill="none" stroke="black" d="M58.48,-145.92C69.69,-146.36 79.09,-143.75 79.09,-138.09 79.09,-134.29 74.85,-131.87 68.66,-130.82"/>
<polygon fill="black" stroke="black" points="68.66,-127.31 58.48,-130.27 68.28,-134.3 68.66,-127.31"/>
<text text-anchor="middle" x="82.59" y="-134.39" font-family="Times,serif" font-size="14.00">0</text>
</g>
<!-- q0,q2 -->
<g id="node4" class="node">
<title>q0,q2</title>
<ellipse fill="none" stroke="black" cx="60.55" cy="-34.55" rx="30.59" ry="30.59"/>
<ellipse fill="none" stroke="black" cx="60.55" cy="-34.55" rx="34.59" ry="34.59"/>
<text text-anchor="middle" x="60.55" y="-30.85" font-family="Times,serif" font-size="14.00">q0,q2</text>
</g>
<!-- q0,q1&#45;&gt;q0,q2 -->
<g id="edge5" class="edge">
<title>q0,q1&#45;&gt;q0,q2</title>
<path fill="none" stroke="black" d="M29.81,-119.68C29.84,-109.93 30.61,-97.65 33.55,-87.09 34.78,-82.65 36.44,-78.15 38.32,-73.76"/>
<polygon fill="black" stroke="black" points="41.65,-74.91 42.74,-64.37 35.31,-71.93 41.65,-74.91"/>
<text text-anchor="middle" x="37.05" y="-90.89" font-family="Times,serif" font-size="14.00">1</text>
</g>
<!-- q0,q2&#45;&gt;q0 -->
<g id="edge7" class="edge">
<title>q0,q2&#45;&gt;q0</title>
<path fill="none" stroke="black" d="M76.35,-65.56C83.78,-81.32 91.8,-101.24 95.55,-120.09 100.81,-146.55 93.77,-176.9 86.82,-197.96"/>
<polygon fill="black" stroke="black" points="83.48,-196.9 83.46,-207.49 90.08,-199.22 83.48,-196.9"/>
<text text-anchor="middle" x="100.05" y="-134.39" font-family="Times,serif" font-size="14.00">1</text>
</g>
<!-- q0,q2&#45;&gt;q0,q1 -->
<g id="edge6" class="edge">
<title>q0,q2&#45;&gt;q0,q1</title>
<path fill="none" stroke="black" d="M50.98,-67.95C46.91,-81.7 42.24,-97.52 38.39,-110.56"/>
<polygon fill="black" stroke="black" points="34.98,-109.74 35.5,-120.33 41.69,-111.73 34.98,-109.74"/>
<text text-anchor="middle" x="49.05" y="-90.89" font-family="Times,serif" font-size="14.00">0</text>
</g>
</g>
</svg>
